<svg xmlns="http://www.w3.org/2000/svg" xmlns:xlink="http://www.w3.org/1999/xlink" contentStyleType="text/css" data-diagram-type="CLASS" height="803px" preserveAspectRatio="none" style="width:1576px;height:803px;background:#1B1B1B;" version="1.1" viewBox="0 0 1576 803" width="1576px" zoomAndPan="magnify"><defs/><g><rect fill="#1B1B1B" height="803" style="stroke:none;stroke-width:1;" width="1576" x="0" y="0"/><!--class StateMachine--><g class="entity" data-entity="StateMachine" data-source-line="5" data-uid="ent0002" id="entity_StateMachine"><rect fill="#313139" height="113.1875" rx="2.5" ry="2.5" style="stroke:#E7E7E7;stroke-width:0.5;" width="246.042" x="1111.54" y="7"/><ellipse cx="1182.4799" cy="23" fill="#2E5233" rx="11" ry="11" style="stroke:#E7E7E7;stroke-width:1;"/><path d="M1185.4487,28.6406 Q1184.8706,28.9375 1184.2299,29.0781 Q1183.5893,29.2344 1182.8862,29.2344 Q1180.3862,29.2344 1179.0581,27.5938 Q1177.7456,25.9375 1177.7456,22.8125 Q1177.7456,19.6875 1179.0581,18.0313 Q1180.3862,16.375 1182.8862,16.375 Q1183.5893,16.375 1184.2299,16.5313 Q1184.8862,16.6875 1185.4487,16.9844 L1185.4487,19.7031 Q1184.8237,19.125 1184.2299,18.8594 Q1183.6362,18.5781 1183.0112,18.5781 Q1181.6674,18.5781 1180.9799,19.6563 Q1180.2924,20.7188 1180.2924,22.8125 Q1180.2924,24.9063 1180.9799,25.9844 Q1181.6674,27.0469 1183.0112,27.0469 Q1183.6362,27.0469 1184.2299,26.7813 Q1184.8237,26.5 1185.4487,25.9219 L1185.4487,28.6406 Z " fill="#FFFFFF"/><text fill="#FFFFFF" font-family="sans-serif" font-size="14" lengthAdjust="spacing" textLength="95.6621" x="1202.9799" y="27.8467">StateMachine</text><line style="stroke:#E7E7E7;stroke-width:0.5;" x1="1112.54" x2="1356.582" y1="39" y2="39"/><g data-visibility-modifier="PRIVATE_FIELD"><rect fill="none" height="6" style="stroke:#C82930;stroke-width:1;" width="6" x="1119.54" y="49.6484"/></g><text fill="#FFFFFF" font-family="sans-serif" font-size="14" lengthAdjust="spacing" textLength="133.752" x="1131.54" y="55.9951">IState currentState</text><line style="stroke:#E7E7E7;stroke-width:0.5;" x1="1112.54" x2="1356.582" y1="63.2969" y2="63.2969"/><g data-visibility-modifier="PUBLIC_METHOD"><ellipse cx="1122.54" cy="76.9453" fill="#84BE84" rx="3" ry="3" style="stroke:#038048;stroke-width:1;"/></g><text fill="#FFFFFF" font-family="sans-serif" font-size="14" lengthAdjust="spacing" textLength="186.1494" x="1131.54" y="80.292">void SetState(IState state)</text><g data-visibility-modifier="PUBLIC_METHOD"><ellipse cx="1122.54" cy="93.2422" fill="#84BE84" rx="3" ry="3" style="stroke:#038048;stroke-width:1;"/></g><text fill="#FFFFFF" font-family="sans-serif" font-size="14" lengthAdjust="spacing" textLength="167.0635" x="1131.54" y="96.5889">void Update(float delta)</text><g data-visibility-modifier="PUBLIC_METHOD"><ellipse cx="1122.54" cy="109.5391" fill="#84BE84" rx="3" ry="3" style="stroke:#038048;stroke-width:1;"/></g><text fill="#FFFFFF" font-family="sans-serif" font-size="14" lengthAdjust="spacing" textLength="220.042" x="1131.54" y="112.8857">void HandleInput(InputEvent e)</text></g><!--class IState--><g class="entity" data-entity="IState" data-source-line="12" data-uid="ent0003" id="entity_IState"><rect fill="#313139" height="113.1875" rx="2.5" ry="2.5" style="stroke:#E7E7E7;stroke-width:0.5;" width="211.9648" x="789.58" y="188.34"/><ellipse cx="870.7192" cy="204.34" fill="#352866" rx="11" ry="11" style="stroke:#E7E7E7;stroke-width:1;"/><path d="M866.641,200.1056 L866.641,197.9494 L874.0317,197.9494 L874.0317,200.1056 L871.5629,200.1056 L871.5629,208.1838 L874.0317,208.1838 L874.0317,210.34 L866.641,210.34 L866.641,208.1838 L869.1098,208.1838 L869.1098,200.1056 L866.641,200.1056 Z " fill="#FFFFFF"/><text fill="#FFFFFF" font-family="sans-serif" font-size="14" font-style="italic" lengthAdjust="spacing" textLength="41.1865" x="891.2192" y="209.1867">IState</text><line style="stroke:#E7E7E7;stroke-width:0.5;" x1="790.58" x2="1000.5448" y1="220.34" y2="220.34"/><line style="stroke:#E7E7E7;stroke-width:0.5;" x1="790.58" x2="1000.5448" y1="228.34" y2="228.34"/><g data-visibility-modifier="PUBLIC_METHOD"><ellipse cx="800.58" cy="241.9884" fill="#84BE84" rx="3" ry="3" style="stroke:#038048;stroke-width:1;"/></g><text fill="#FFFFFF" font-family="sans-serif" font-size="14" lengthAdjust="spacing" textLength="48.501" x="809.58" y="245.3351">Enter()</text><g data-visibility-modifier="PUBLIC_METHOD"><ellipse cx="800.58" cy="258.2853" fill="#84BE84" rx="3" ry="3" style="stroke:#038048;stroke-width:1;"/></g><text fill="#FFFFFF" font-family="sans-serif" font-size="14" lengthAdjust="spacing" textLength="37.4336" x="809.58" y="261.632">Exit()</text><g data-visibility-modifier="PUBLIC_METHOD"><ellipse cx="800.58" cy="274.5822" fill="#84BE84" rx="3" ry="3" style="stroke:#038048;stroke-width:1;"/></g><text fill="#FFFFFF" font-family="sans-serif" font-size="14" lengthAdjust="spacing" textLength="132.9863" x="809.58" y="277.9289">Update(float delta)</text><g data-visibility-modifier="PUBLIC_METHOD"><ellipse cx="800.58" cy="290.8791" fill="#84BE84" rx="3" ry="3" style="stroke:#038048;stroke-width:1;"/></g><text fill="#FFFFFF" font-family="sans-serif" font-size="14" lengthAdjust="spacing" textLength="185.9648" x="809.58" y="294.2257">HandleInput(InputEvent e)</text></g><!--class DrawingState--><g class="entity" data-entity="DrawingState" data-source-line="19" data-uid="ent0004" id="entity_DrawingState"><rect fill="#313139" height="48" rx="2.5" ry="2.5" style="stroke:#E7E7E7;stroke-width:0.5;" width="127.2725" x="610.93" y="39.59"/><ellipse cx="625.93" cy="55.59" fill="#2E5233" rx="11" ry="11" style="stroke:#E7E7E7;stroke-width:1;"/><path d="M628.8988,61.2306 Q628.3206,61.5275 627.68,61.6681 Q627.0394,61.8244 626.3363,61.8244 Q623.8363,61.8244 622.5081,60.1838 Q621.1956,58.5275 621.1956,55.4025 Q621.1956,52.2775 622.5081,50.6213 Q623.8363,48.965 626.3363,48.965 Q627.0394,48.965 627.68,49.1213 Q628.3363,49.2775 628.8988,49.5744 L628.8988,52.2931 Q628.2738,51.715 627.68,51.4494 Q627.0863,51.1681 626.4613,51.1681 Q625.1175,51.1681 624.43,52.2463 Q623.7425,53.3088 623.7425,55.4025 Q623.7425,57.4963 624.43,58.5744 Q625.1175,59.6369 626.4613,59.6369 Q627.0863,59.6369 627.68,59.3713 Q628.2738,59.09 628.8988,58.5119 L628.8988,61.2306 Z " fill="#FFFFFF"/><text fill="#FFFFFF" font-family="sans-serif" font-size="14" lengthAdjust="spacing" textLength="95.2725" x="639.93" y="60.4367">DrawingState</text><line style="stroke:#E7E7E7;stroke-width:0.5;" x1="611.93" x2="737.2025" y1="71.59" y2="71.59"/><line style="stroke:#E7E7E7;stroke-width:0.5;" x1="611.93" x2="737.2025" y1="79.59" y2="79.59"/></g><!--class ErasingState--><g class="entity" data-entity="ErasingState" data-source-line="20" data-uid="ent0005" id="entity_ErasingState"><rect fill="#313139" height="48" rx="2.5" ry="2.5" style="stroke:#E7E7E7;stroke-width:0.5;" width="121.1816" x="772.97" y="39.59"/><ellipse cx="787.97" cy="55.59" fill="#2E5233" rx="11" ry="11" style="stroke:#E7E7E7;stroke-width:1;"/><path d="M790.9388,61.2306 Q790.3606,61.5275 789.72,61.6681 Q789.0794,61.8244 788.3763,61.8244 Q785.8763,61.8244 784.5481,60.1838 Q783.2356,58.5275 783.2356,55.4025 Q783.2356,52.2775 784.5481,50.6213 Q785.8763,48.965 788.3763,48.965 Q789.0794,48.965 789.72,49.1213 Q790.3763,49.2775 790.9388,49.5744 L790.9388,52.2931 Q790.3138,51.715 789.72,51.4494 Q789.1263,51.1681 788.5013,51.1681 Q787.1575,51.1681 786.47,52.2463 Q785.7825,53.3088 785.7825,55.4025 Q785.7825,57.4963 786.47,58.5744 Q787.1575,59.6369 788.5013,59.6369 Q789.1263,59.6369 789.72,59.3713 Q790.3138,59.09 790.9388,58.5119 L790.9388,61.2306 Z " fill="#FFFFFF"/><text fill="#FFFFFF" font-family="sans-serif" font-size="14" lengthAdjust="spacing" textLength="89.1816" x="801.97" y="60.4367">ErasingState</text><line style="stroke:#E7E7E7;stroke-width:0.5;" x1="773.97" x2="893.1516" y1="71.59" y2="71.59"/><line style="stroke:#E7E7E7;stroke-width:0.5;" x1="773.97" x2="893.1516" y1="79.59" y2="79.59"/></g><!--class GeneratingState--><g class="entity" data-entity="GeneratingState" data-source-line="21" data-uid="ent0006" id="entity_GeneratingState"><rect fill="#313139" height="48" rx="2.5" ry="2.5" style="stroke:#E7E7E7;stroke-width:0.5;" width="147.4795" x="928.82" y="39.59"/><ellipse cx="943.82" cy="55.59" fill="#2E5233" rx="11" ry="11" style="stroke:#E7E7E7;stroke-width:1;"/><path d="M946.7888,61.2306 Q946.2106,61.5275 945.57,61.6681 Q944.9294,61.8244 944.2263,61.8244 Q941.7263,61.8244 940.3981,60.1838 Q939.0856,58.5275 939.0856,55.4025 Q939.0856,52.2775 940.3981,50.6213 Q941.7263,48.965 944.2263,48.965 Q944.9294,48.965 945.57,49.1213 Q946.2263,49.2775 946.7888,49.5744 L946.7888,52.2931 Q946.1638,51.715 945.57,51.4494 Q944.9763,51.1681 944.3513,51.1681 Q943.0075,51.1681 942.32,52.2463 Q941.6325,53.3088 941.6325,55.4025 Q941.6325,57.4963 942.32,58.5744 Q943.0075,59.6369 944.3513,59.6369 Q944.9763,59.6369 945.57,59.3713 Q946.1638,59.09 946.7888,58.5119 L946.7888,61.2306 Z " fill="#FFFFFF"/><text fill="#FFFFFF" font-family="sans-serif" font-size="14" lengthAdjust="spacing" textLength="115.4795" x="957.82" y="60.4367">GeneratingState</text><line style="stroke:#E7E7E7;stroke-width:0.5;" x1="929.82" x2="1075.2995" y1="71.59" y2="71.59"/><line style="stroke:#E7E7E7;stroke-width:0.5;" x1="929.82" x2="1075.2995" y1="79.59" y2="79.59"/></g><!--class ICommand--><g class="entity" data-entity="ICommand" data-source-line="34" data-uid="ent0011" id="entity_ICommand"><rect fill="#313139" height="80.5938" rx="2.5" ry="2.5" style="stroke:#E7E7E7;stroke-width:0.5;" width="108.084" x="1004.52" y="559.16"/><ellipse cx="1019.52" cy="575.16" fill="#352866" rx="11" ry="11" style="stroke:#E7E7E7;stroke-width:1;"/><path d="M1015.4419,570.9256 L1015.4419,568.7694 L1022.8325,568.7694 L1022.8325,570.9256 L1020.3638,570.9256 L1020.3638,579.0038 L1022.8325,579.0038 L1022.8325,581.16 L1015.4419,581.16 L1015.4419,579.0038 L1017.9106,579.0038 L1017.9106,570.9256 L1015.4419,570.9256 Z " fill="#FFFFFF"/><text fill="#FFFFFF" font-family="sans-serif" font-size="14" font-style="italic" lengthAdjust="spacing" textLength="76.084" x="1033.52" y="580.0067">ICommand</text><line style="stroke:#E7E7E7;stroke-width:0.5;" x1="1005.52" x2="1111.604" y1="591.16" y2="591.16"/><line style="stroke:#E7E7E7;stroke-width:0.5;" x1="1005.52" x2="1111.604" y1="599.16" y2="599.16"/><g data-visibility-modifier="PUBLIC_METHOD"><ellipse cx="1015.52" cy="612.8084" fill="#84BE84" rx="3" ry="3" style="stroke:#038048;stroke-width:1;"/></g><text fill="#FFFFFF" font-family="sans-serif" font-size="14" lengthAdjust="spacing" textLength="67.3408" x="1024.52" y="616.1551">Execute()</text><g data-visibility-modifier="PUBLIC_METHOD"><ellipse cx="1015.52" cy="629.1053" fill="#84BE84" rx="3" ry="3" style="stroke:#038048;stroke-width:1;"/></g><text fill="#FFFFFF" font-family="sans-serif" font-size="14" lengthAdjust="spacing" textLength="47.4961" x="1024.52" y="632.452">Undo()</text></g><!--class AddStrokeCommand--><g class="entity" data-entity="AddStrokeCommand" data-source-line="39" data-uid="ent0012" id="entity_AddStrokeCommand"><rect fill="#313139" height="48" rx="2.5" ry="2.5" style="stroke:#E7E7E7;stroke-width:0.5;" width="176.7236" x="643.2" y="410.41"/><ellipse cx="658.2" cy="426.41" fill="#2E5233" rx="11" ry="11" style="stroke:#E7E7E7;stroke-width:1;"/><path d="M661.1688,432.0506 Q660.5906,432.3475 659.95,432.4881 Q659.3094,432.6444 658.6063,432.6444 Q656.1063,432.6444 654.7781,431.0037 Q653.4656,429.3475 653.4656,426.2225 Q653.4656,423.0975 654.7781,421.4412 Q656.1063,419.785 658.6063,419.785 Q659.3094,419.785 659.95,419.9412 Q660.6063,420.0975 661.1688,420.3944 L661.1688,423.1131 Q660.5438,422.535 659.95,422.2694 Q659.3563,421.9881 658.7313,421.9881 Q657.3875,421.9881 656.7,423.0662 Q656.0125,424.1287 656.0125,426.2225 Q656.0125,428.3162 656.7,429.3944 Q657.3875,430.4569 658.7313,430.4569 Q659.3563,430.4569 659.95,430.1912 Q660.5438,429.91 661.1688,429.3319 L661.1688,432.0506 Z " fill="#FFFFFF"/><text fill="#FFFFFF" font-family="sans-serif" font-size="14" lengthAdjust="spacing" textLength="144.7236" x="672.2" y="431.2567">AddStrokeCommand</text><line style="stroke:#E7E7E7;stroke-width:0.5;" x1="644.2" x2="818.9236" y1="442.41" y2="442.41"/><line style="stroke:#E7E7E7;stroke-width:0.5;" x1="644.2" x2="818.9236" y1="450.41" y2="450.41"/></g><!--class EraseStrokeCommand--><g class="entity" data-entity="EraseStrokeCommand" data-source-line="40" data-uid="ent0013" id="entity_EraseStrokeCommand"><rect fill="#313139" height="48" rx="2.5" ry="2.5" style="stroke:#E7E7E7;stroke-width:0.5;" width="188.4609" x="855.33" y="410.41"/><ellipse cx="870.33" cy="426.41" fill="#2E5233" rx="11" ry="11" style="stroke:#E7E7E7;stroke-width:1;"/><path d="M873.2988,432.0506 Q872.7206,432.3475 872.08,432.4881 Q871.4394,432.6444 870.7363,432.6444 Q868.2363,432.6444 866.9081,431.0037 Q865.5956,429.3475 865.5956,426.2225 Q865.5956,423.0975 866.9081,421.4412 Q868.2363,419.785 870.7363,419.785 Q871.4394,419.785 872.08,419.9412 Q872.7363,420.0975 873.2988,420.3944 L873.2988,423.1131 Q872.6738,422.535 872.08,422.2694 Q871.4863,421.9881 870.8613,421.9881 Q869.5175,421.9881 868.83,423.0662 Q868.1425,424.1287 868.1425,426.2225 Q868.1425,428.3162 868.83,429.3944 Q869.5175,430.4569 870.8613,430.4569 Q871.4863,430.4569 872.08,430.1912 Q872.6738,429.91 873.2988,429.3319 L873.2988,432.0506 Z " fill="#FFFFFF"/><text fill="#FFFFFF" font-family="sans-serif" font-size="14" lengthAdjust="spacing" textLength="156.4609" x="884.33" y="431.2567">EraseStrokeCommand</text><line style="stroke:#E7E7E7;stroke-width:0.5;" x1="856.33" x2="1042.7909" y1="442.41" y2="442.41"/><line style="stroke:#E7E7E7;stroke-width:0.5;" x1="856.33" x2="1042.7909" y1="450.41" y2="450.41"/></g><!--class MoveLayerCommand--><g class="entity" data-entity="MoveLayerCommand" data-source-line="41" data-uid="ent0014" id="entity_MoveLayerCommand"><rect fill="#313139" height="48" rx="2.5" ry="2.5" style="stroke:#E7E7E7;stroke-width:0.5;" width="180.5313" x="1078.3" y="410.41"/><ellipse cx="1093.3" cy="426.41" fill="#2E5233" rx="11" ry="11" style="stroke:#E7E7E7;stroke-width:1;"/><path d="M1096.2688,432.0506 Q1095.6906,432.3475 1095.05,432.4881 Q1094.4094,432.6444 1093.7063,432.6444 Q1091.2063,432.6444 1089.8781,431.0037 Q1088.5656,429.3475 1088.5656,426.2225 Q1088.5656,423.0975 1089.8781,421.4412 Q1091.2063,419.785 1093.7063,419.785 Q1094.4094,419.785 1095.05,419.9412 Q1095.7063,420.0975 1096.2688,420.3944 L1096.2688,423.1131 Q1095.6438,422.535 1095.05,422.2694 Q1094.4563,421.9881 1093.8313,421.9881 Q1092.4875,421.9881 1091.8,423.0662 Q1091.1125,424.1287 1091.1125,426.2225 Q1091.1125,428.3162 1091.8,429.3944 Q1092.4875,430.4569 1093.8313,430.4569 Q1094.4563,430.4569 1095.05,430.1912 Q1095.6438,429.91 1096.2688,429.3319 L1096.2688,432.0506 Z " fill="#FFFFFF"/><text fill="#FFFFFF" font-family="sans-serif" font-size="14" lengthAdjust="spacing" textLength="148.5313" x="1107.3" y="431.2567">MoveLayerCommand</text><line style="stroke:#E7E7E7;stroke-width:0.5;" x1="1079.3" x2="1257.8313" y1="442.41" y2="442.41"/><line style="stroke:#E7E7E7;stroke-width:0.5;" x1="1079.3" x2="1257.8313" y1="450.41" y2="450.41"/></g><!--class CommandHistory--><g class="entity" data-entity="CommandHistory" data-source-line="47" data-uid="ent0018" id="entity_CommandHistory"><rect fill="#313139" height="129.4844" rx="2.5" ry="2.5" style="stroke:#E7E7E7;stroke-width:0.5;" width="276.0518" x="1293.54" y="369.67"/><ellipse cx="1366.435" cy="385.67" fill="#2E5233" rx="11" ry="11" style="stroke:#E7E7E7;stroke-width:1;"/><path d="M1369.4038,391.3106 Q1368.8256,391.6075 1368.185,391.7481 Q1367.5444,391.9044 1366.8413,391.9044 Q1364.3413,391.9044 1363.0131,390.2637 Q1361.7006,388.6075 1361.7006,385.4825 Q1361.7006,382.3575 1363.0131,380.7012 Q1364.3413,379.045 1366.8413,379.045 Q1367.5444,379.045 1368.185,379.2012 Q1368.8413,379.3575 1369.4038,379.6544 L1369.4038,382.3731 Q1368.7788,381.795 1368.185,381.5294 Q1367.5913,381.2481 1366.9663,381.2481 Q1365.6225,381.2481 1364.935,382.3262 Q1364.2475,383.3887 1364.2475,385.4825 Q1364.2475,387.5762 1364.935,388.6544 Q1365.6225,389.7169 1366.9663,389.7169 Q1367.5913,389.7169 1368.185,389.4512 Q1368.7788,389.17 1369.4038,388.5919 L1369.4038,391.3106 Z " fill="#FFFFFF"/><text fill="#FFFFFF" font-family="sans-serif" font-size="14" lengthAdjust="spacing" textLength="121.7617" x="1386.935" y="390.5167">CommandHistory</text><line style="stroke:#E7E7E7;stroke-width:0.5;" x1="1294.54" x2="1568.5918" y1="401.67" y2="401.67"/><g data-visibility-modifier="PRIVATE_FIELD"><rect fill="none" height="6" style="stroke:#C82930;stroke-width:1;" width="6" x="1301.54" y="412.3184"/></g><text fill="#FFFFFF" font-family="sans-serif" font-size="14" lengthAdjust="spacing" textLength="216.7129" x="1313.54" y="418.6651">Stack&lt;ICommand&gt; undoStack</text><g data-visibility-modifier="PRIVATE_FIELD"><rect fill="none" height="6" style="stroke:#C82930;stroke-width:1;" width="6" x="1301.54" y="428.6153"/></g><text fill="#FFFFFF" font-family="sans-serif" font-size="14" lengthAdjust="spacing" textLength="213.3359" x="1313.54" y="434.962">Stack&lt;ICommand&gt; redoStack</text><line style="stroke:#E7E7E7;stroke-width:0.5;" x1="1294.54" x2="1568.5918" y1="442.2637" y2="442.2637"/><g data-visibility-modifier="PUBLIC_METHOD"><ellipse cx="1304.54" cy="455.9122" fill="#84BE84" rx="3" ry="3" style="stroke:#038048;stroke-width:1;"/></g><text fill="#FFFFFF" font-family="sans-serif" font-size="14" lengthAdjust="spacing" textLength="250.0518" x="1313.54" y="459.2589">ExecuteCommand(ICommand cmd)</text><g data-visibility-modifier="PUBLIC_METHOD"><ellipse cx="1304.54" cy="472.2091" fill="#84BE84" rx="3" ry="3" style="stroke:#038048;stroke-width:1;"/></g><text fill="#FFFFFF" font-family="sans-serif" font-size="14" lengthAdjust="spacing" textLength="47.4961" x="1313.54" y="475.5557">Undo()</text><g data-visibility-modifier="PUBLIC_METHOD"><ellipse cx="1304.54" cy="488.5059" fill="#84BE84" rx="3" ry="3" style="stroke:#038048;stroke-width:1;"/></g><text fill="#FFFFFF" font-family="sans-serif" font-size="14" lengthAdjust="spacing" textLength="46.7168" x="1313.54" y="491.8526">Redo()</text></g><!--class ToolManager--><g class="entity" data-entity="ToolManager" data-source-line="57" data-uid="ent0020" id="entity_ToolManager"><rect fill="#313139" height="129.4844" rx="2.5" ry="2.5" style="stroke:#E7E7E7;stroke-width:0.5;" width="271.1914" x="1098.97" y="180.19"/><ellipse cx="1184.8465" cy="196.19" fill="#2E5233" rx="11" ry="11" style="stroke:#E7E7E7;stroke-width:1;"/><path d="M1187.8152,201.8306 Q1187.2371,202.1275 1186.5965,202.2681 Q1185.9558,202.4244 1185.2527,202.4244 Q1182.7527,202.4244 1181.4246,200.7837 Q1180.1121,199.1275 1180.1121,196.0025 Q1180.1121,192.8775 1181.4246,191.2212 Q1182.7527,189.565 1185.2527,189.565 Q1185.9558,189.565 1186.5965,189.7212 Q1187.2527,189.8775 1187.8152,190.1744 L1187.8152,192.8931 Q1187.1902,192.315 1186.5965,192.0494 Q1186.0027,191.7681 1185.3777,191.7681 Q1184.034,191.7681 1183.3465,192.8462 Q1182.659,193.9087 1182.659,196.0025 Q1182.659,198.0962 1183.3465,199.1744 Q1184.034,200.2369 1185.3777,200.2369 Q1186.0027,200.2369 1186.5965,199.9712 Q1187.1902,199.69 1187.8152,199.1119 L1187.8152,201.8306 Z " fill="#FFFFFF"/><text fill="#FFFFFF" font-family="sans-serif" font-size="14" lengthAdjust="spacing" textLength="90.9385" x="1205.3465" y="201.0367">ToolManager</text><line style="stroke:#E7E7E7;stroke-width:0.5;" x1="1099.97" x2="1369.1614" y1="212.19" y2="212.19"/><g data-visibility-modifier="PRIVATE_FIELD"><rect fill="none" height="6" style="stroke:#C82930;stroke-width:1;" width="6" x="1106.97" y="222.8384"/></g><text fill="#FFFFFF" font-family="sans-serif" font-size="14" lengthAdjust="spacing" textLength="118.9863" x="1118.97" y="229.1851">Drawing drawing</text><g data-visibility-modifier="PRIVATE_FIELD"><rect fill="none" height="6" style="stroke:#C82930;stroke-width:1;" width="6" x="1106.97" y="239.1353"/></g><text fill="#FFFFFF" font-family="sans-serif" font-size="14" lengthAdjust="spacing" textLength="174.3643" x="1118.97" y="245.482">CommandHistory history</text><g data-visibility-modifier="PRIVATE_FIELD"><rect fill="none" height="6" style="stroke:#C82930;stroke-width:1;" width="6" x="1106.97" y="255.4322"/></g><text fill="#FFFFFF" font-family="sans-serif" font-size="14" lengthAdjust="spacing" textLength="73.9785" x="1118.97" y="261.7789">int version</text><line style="stroke:#E7E7E7;stroke-width:0.5;" x1="1099.97" x2="1369.1614" y1="269.0806" y2="269.0806"/><g data-visibility-modifier="PUBLIC_METHOD"><ellipse cx="1109.97" cy="282.7291" fill="#84BE84" rx="3" ry="3" style="stroke:#038048;stroke-width:1;"/></g><text fill="#FFFFFF" font-family="sans-serif" font-size="14" lengthAdjust="spacing" textLength="156.7549" x="1118.97" y="286.0757">Drawing GetDrawing()</text><g data-visibility-modifier="PUBLIC_METHOD"><ellipse cx="1109.97" cy="299.0259" fill="#84BE84" rx="3" ry="3" style="stroke:#038048;stroke-width:1;"/></g><text fill="#FFFFFF" font-family="sans-serif" font-size="14" lengthAdjust="spacing" textLength="245.1914" x="1118.97" y="302.3726">void SetDrawing(Drawing drawing)</text></g><!--class Node2D--><g class="entity" data-entity="Node2D" data-source-line="63" data-uid="ent0022" id="entity_Node2D"><rect fill="#313139" height="48" rx="2.5" ry="2.5" style="stroke:#E7E7E7;stroke-width:0.5;" width="88.2256" x="369.45" y="724.19"/><ellipse cx="384.45" cy="740.19" fill="#2E5233" rx="11" ry="11" style="stroke:#E7E7E7;stroke-width:1;"/><path d="M387.4188,745.8306 Q386.8406,746.1275 386.2,746.2681 Q385.5594,746.4244 384.8563,746.4244 Q382.3563,746.4244 381.0281,744.7837 Q379.7156,743.1275 379.7156,740.0025 Q379.7156,736.8775 381.0281,735.2212 Q382.3563,733.565 384.8563,733.565 Q385.5594,733.565 386.2,733.7212 Q386.8563,733.8775 387.4188,734.1744 L387.4188,736.8931 Q386.7938,736.315 386.2,736.0494 Q385.6063,735.7681 384.9813,735.7681 Q383.6375,735.7681 382.95,736.8462 Q382.2625,737.9087 382.2625,740.0025 Q382.2625,742.0962 382.95,743.1744 Q383.6375,744.2369 384.9813,744.2369 Q385.6063,744.2369 386.2,743.9712 Q386.7938,743.69 387.4188,743.1119 L387.4188,745.8306 Z " fill="#FFFFFF"/><text fill="#FFFFFF" font-family="sans-serif" font-size="14" lengthAdjust="spacing" textLength="56.2256" x="398.45" y="745.0367">Node2D</text><line style="stroke:#E7E7E7;stroke-width:0.5;" x1="370.45" x2="456.6756" y1="756.19" y2="756.19"/><line style="stroke:#E7E7E7;stroke-width:0.5;" x1="370.45" x2="456.6756" y1="764.19" y2="764.19"/></g><!--class DrawingLayer--><g class="entity" data-entity="DrawingLayer" data-source-line="65" data-uid="ent0023" id="entity_DrawingLayer"><rect fill="#313139" height="64.2969" rx="2.5" ry="2.5" style="stroke:#E7E7E7;stroke-width:0.5;" width="176.5137" x="409.31" y="567.3"/><ellipse cx="445.5795" cy="583.3" fill="#2E5233" rx="11" ry="11" style="stroke:#E7E7E7;stroke-width:1;"/><path d="M448.5483,588.9406 Q447.9702,589.2375 447.3295,589.3781 Q446.6889,589.5344 445.9858,589.5344 Q443.4858,589.5344 442.1577,587.8938 Q440.8452,586.2375 440.8452,583.1125 Q440.8452,579.9875 442.1577,578.3313 Q443.4858,576.675 445.9858,576.675 Q446.6889,576.675 447.3295,576.8313 Q447.9858,576.9875 448.5483,577.2844 L448.5483,580.0031 Q447.9233,579.425 447.3295,579.1594 Q446.7358,578.8781 446.1108,578.8781 Q444.767,578.8781 444.0795,579.9563 Q443.392,581.0188 443.392,583.1125 Q443.392,585.2063 444.0795,586.2844 Q444.767,587.3469 446.1108,587.3469 Q446.7358,587.3469 447.3295,587.0813 Q447.9233,586.8 448.5483,586.2219 L448.5483,588.9406 Z " fill="#FFFFFF"/><text fill="#FFFFFF" font-family="sans-serif" font-size="14" lengthAdjust="spacing" textLength="97.248" x="464.3061" y="588.1467">DrawingLayer</text><line style="stroke:#E7E7E7;stroke-width:0.5;" x1="410.31" x2="584.8237" y1="599.3" y2="599.3"/><g data-visibility-modifier="PRIVATE_FIELD"><rect fill="none" height="6" style="stroke:#C82930;stroke-width:1;" width="6" x="417.31" y="609.9484"/></g><text fill="#FFFFFF" font-family="sans-serif" font-size="14" lengthAdjust="spacing" textLength="150.5137" x="429.31" y="616.2951">List&lt;Stroke&gt; Strokes</text><line style="stroke:#E7E7E7;stroke-width:0.5;" x1="410.31" x2="584.8237" y1="623.5969" y2="623.5969"/></g><!--class Drawing--><g class="entity" data-entity="Drawing" data-source-line="90" data-uid="ent0026" id="entity_Drawing"><rect fill="#313139" height="64.2969" rx="2.5" ry="2.5" style="stroke:#E7E7E7;stroke-width:0.5;" width="221.959" x="386.58" y="402.26"/><ellipse cx="464.2021" cy="418.26" fill="#2E5233" rx="11" ry="11" style="stroke:#E7E7E7;stroke-width:1;"/><path d="M467.1708,423.9006 Q466.5927,424.1975 465.9521,424.3381 Q465.3114,424.4944 464.6083,424.4944 Q462.1083,424.4944 460.7802,422.8538 Q459.4677,421.1975 459.4677,418.0725 Q459.4677,414.9475 460.7802,413.2913 Q462.1083,411.635 464.6083,411.635 Q465.3114,411.635 465.9521,411.7913 Q466.6083,411.9475 467.1708,412.2444 L467.1708,414.9631 Q466.5458,414.385 465.9521,414.1194 Q465.3583,413.8381 464.7333,413.8381 Q463.3896,413.8381 462.7021,414.9163 Q462.0146,415.9788 462.0146,418.0725 Q462.0146,420.1663 462.7021,421.2444 Q463.3896,422.3069 464.7333,422.3069 Q465.3583,422.3069 465.9521,422.0413 Q466.5458,421.76 467.1708,421.1819 L467.1708,423.9006 Z " fill="#FFFFFF"/><text fill="#FFFFFF" font-family="sans-serif" font-size="14" lengthAdjust="spacing" textLength="58.2148" x="484.7021" y="423.1067">Drawing</text><line style="stroke:#E7E7E7;stroke-width:0.5;" x1="387.58" x2="607.539" y1="434.26" y2="434.26"/><g data-visibility-modifier="PRIVATE_FIELD"><rect fill="none" height="6" style="stroke:#C82930;stroke-width:1;" width="6" x="394.58" y="444.9084"/></g><text fill="#FFFFFF" font-family="sans-serif" font-size="14" lengthAdjust="spacing" textLength="195.959" x="406.58" y="451.2551">List&lt;DrawingLayer&gt; Layers</text><line style="stroke:#E7E7E7;stroke-width:0.5;" x1="387.58" x2="607.539" y1="458.5569" y2="458.5569"/></g><!--class Stroke--><g class="entity" data-entity="Stroke" data-source-line="94" data-uid="ent0027" id="entity_Stroke"><rect fill="#313139" height="96.8906" rx="2.5" ry="2.5" style="stroke:#E7E7E7;stroke-width:0.5;" width="175.543" x="492.79" y="699.75"/><ellipse cx="553.6025" cy="715.75" fill="#2E5233" rx="11" ry="11" style="stroke:#E7E7E7;stroke-width:1;"/><path d="M556.5713,721.3906 Q555.9931,721.6875 555.3525,721.8281 Q554.7119,721.9844 554.0088,721.9844 Q551.5088,721.9844 550.1806,720.3438 Q548.8681,718.6875 548.8681,715.5625 Q548.8681,712.4375 550.1806,710.7813 Q551.5088,709.125 554.0088,709.125 Q554.7119,709.125 555.3525,709.2813 Q556.0088,709.4375 556.5713,709.7344 L556.5713,712.4531 Q555.9463,711.875 555.3525,711.6094 Q554.7588,711.3281 554.1338,711.3281 Q552.79,711.3281 552.1025,712.4063 Q551.415,713.4688 551.415,715.5625 Q551.415,717.6563 552.1025,718.7344 Q552.79,719.7969 554.1338,719.7969 Q554.7588,719.7969 555.3525,719.5313 Q555.9463,719.25 556.5713,718.6719 L556.5713,721.3906 Z " fill="#FFFFFF"/><text fill="#FFFFFF" font-family="sans-serif" font-size="14" lengthAdjust="spacing" textLength="45.418" x="574.1025" y="720.5967">Stroke</text><line style="stroke:#E7E7E7;stroke-width:0.5;" x1="493.79" x2="667.333" y1="731.75" y2="731.75"/><g data-visibility-modifier="PRIVATE_FIELD"><rect fill="none" height="6" style="stroke:#C82930;stroke-width:1;" width="6" x="500.79" y="742.3984"/></g><text fill="#FFFFFF" font-family="sans-serif" font-size="14" lengthAdjust="spacing" textLength="149.543" x="512.79" y="748.7451">List&lt;Vector2&gt; Points</text><g data-visibility-modifier="PRIVATE_FIELD"><rect fill="none" height="6" style="stroke:#C82930;stroke-width:1;" width="6" x="500.79" y="758.6953"/></g><text fill="#FFFFFF" font-family="sans-serif" font-size="14" lengthAdjust="spacing" textLength="105.0957" x="512.79" y="765.042">float Thickness</text><g data-visibility-modifier="PRIVATE_FIELD"><rect fill="none" height="6" style="stroke:#C82930;stroke-width:1;" width="6" x="500.79" y="774.9922"/></g><text fill="#FFFFFF" font-family="sans-serif" font-size="14" lengthAdjust="spacing" textLength="77.5537" x="512.79" y="781.3389">Color Color</text><line style="stroke:#E7E7E7;stroke-width:0.5;" x1="493.79" x2="667.333" y1="788.6406" y2="788.6406"/></g><!--class FileStrategyManager--><g class="entity" data-entity="FileStrategyManager" data-source-line="108" data-uid="ent0030" id="entity_FileStrategyManager"><rect fill="#313139" height="80.5938" rx="2.5" ry="2.5" style="stroke:#E7E7E7;stroke-width:0.5;" width="444.6533" x="52.24" y="204.63"/><ellipse cx="197.4182" cy="220.63" fill="#2E5233" rx="11" ry="11" style="stroke:#E7E7E7;stroke-width:1;"/><path d="M200.387,226.2706 Q199.8088,226.5675 199.1682,226.7081 Q198.5276,226.8644 197.8245,226.8644 Q195.3245,226.8644 193.9963,225.2238 Q192.6838,223.5675 192.6838,220.4425 Q192.6838,217.3175 193.9963,215.6613 Q195.3245,214.005 197.8245,214.005 Q198.5276,214.005 199.1682,214.1613 Q199.8245,214.3175 200.387,214.6144 L200.387,217.3331 Q199.762,216.755 199.1682,216.4894 Q198.5745,216.2081 197.9495,216.2081 Q196.6057,216.2081 195.9182,217.2863 Q195.2307,218.3488 195.2307,220.4425 Q195.2307,222.5363 195.9182,223.6144 Q196.6057,224.6769 197.9495,224.6769 Q198.5745,224.6769 199.1682,224.4113 Q199.762,224.13 200.387,223.5519 L200.387,226.2706 Z " fill="#FFFFFF"/><text fill="#FFFFFF" font-family="sans-serif" font-size="14" lengthAdjust="spacing" textLength="145.7969" x="217.9182" y="225.4767">FileStrategyManager</text><line style="stroke:#E7E7E7;stroke-width:0.5;" x1="53.24" x2="495.8933" y1="236.63" y2="236.63"/><g data-visibility-modifier="PRIVATE_FIELD"><rect fill="none" height="6" style="stroke:#C82930;stroke-width:1;" width="6" x="60.24" y="247.2784"/></g><text fill="#FFFFFF" font-family="sans-serif" font-size="14" lengthAdjust="spacing" textLength="374.1035" x="72.24" y="253.6251">dictionary&lt;string, IFileSaveStrategy&gt; saveStrategies</text><g data-visibility-modifier="PRIVATE_FIELD"><rect fill="none" height="6" style="stroke:#C82930;stroke-width:1;" width="6" x="60.24" y="263.5753"/></g><text fill="#FFFFFF" font-family="sans-serif" font-size="14" lengthAdjust="spacing" textLength="418.6533" x="72.24" y="269.922">dictionary&lt;string, List&lt;IFileLoadStrategy&gt;&gt; loadStrategies</text><line style="stroke:#E7E7E7;stroke-width:0.5;" x1="53.24" x2="495.8933" y1="277.2238" y2="277.2238"/></g><!--class IFileSaveStrategy--><g class="entity" data-entity="IFileSaveStrategy" data-source-line="113" data-uid="ent0031" id="entity_IFileSaveStrategy"><rect fill="#313139" height="64.2969" rx="2.5" ry="2.5" style="stroke:#E7E7E7;stroke-width:0.5;" width="154.9238" x="197.1" y="402.26"/><ellipse cx="212.1" cy="418.26" fill="#352866" rx="11" ry="11" style="stroke:#E7E7E7;stroke-width:1;"/><path d="M208.0219,414.0256 L208.0219,411.8694 L215.4125,411.8694 L215.4125,414.0256 L212.9438,414.0256 L212.9438,422.1038 L215.4125,422.1038 L215.4125,424.26 L208.0219,424.26 L208.0219,422.1038 L210.4906,422.1038 L210.4906,414.0256 L208.0219,414.0256 Z " fill="#FFFFFF"/><text fill="#FFFFFF" font-family="sans-serif" font-size="14" font-style="italic" lengthAdjust="spacing" textLength="122.9238" x="226.1" y="423.1067">IFileSaveStrategy</text><line style="stroke:#E7E7E7;stroke-width:0.5;" x1="198.1" x2="351.0238" y1="434.26" y2="434.26"/><g data-visibility-modifier="PRIVATE_FIELD"><rect fill="none" height="6" style="stroke:#C82930;stroke-width:1;" width="6" x="205.1" y="444.9084"/></g><text fill="#FFFFFF" font-family="sans-serif" font-size="14" lengthAdjust="spacing" textLength="100.2969" x="217.1" y="451.2551">string fileType</text><line style="stroke:#E7E7E7;stroke-width:0.5;" x1="198.1" x2="351.0238" y1="458.5569" y2="458.5569"/></g><!--class IFileLoadStrategy--><g class="entity" data-entity="IFileLoadStrategy" data-source-line="117" data-uid="ent0032" id="entity_IFileLoadStrategy"><rect fill="#313139" height="64.2969" rx="2.5" ry="2.5" style="stroke:#E7E7E7;stroke-width:0.5;" width="154.3906" x="7.37" y="402.26"/><ellipse cx="22.37" cy="418.26" fill="#352866" rx="11" ry="11" style="stroke:#E7E7E7;stroke-width:1;"/><path d="M18.2919,414.0256 L18.2919,411.8694 L25.6825,411.8694 L25.6825,414.0256 L23.2138,414.0256 L23.2138,422.1038 L25.6825,422.1038 L25.6825,424.26 L18.2919,424.26 L18.2919,422.1038 L20.7606,422.1038 L20.7606,414.0256 L18.2919,414.0256 Z " fill="#FFFFFF"/><text fill="#FFFFFF" font-family="sans-serif" font-size="14" font-style="italic" lengthAdjust="spacing" textLength="122.3906" x="36.37" y="423.1067">IFileLoadStrategy</text><line style="stroke:#E7E7E7;stroke-width:0.5;" x1="8.37" x2="160.7606" y1="434.26" y2="434.26"/><g data-visibility-modifier="PRIVATE_FIELD"><rect fill="none" height="6" style="stroke:#C82930;stroke-width:1;" width="6" x="15.37" y="444.9084"/></g><text fill="#FFFFFF" font-family="sans-serif" font-size="14" lengthAdjust="spacing" textLength="100.2969" x="27.37" y="451.2551">string fileType</text><line style="stroke:#E7E7E7;stroke-width:0.5;" x1="8.37" x2="160.7606" y1="458.5569" y2="458.5569"/></g><!--class SVGSaveStrategy--><g class="entity" data-entity="SVGSaveStrategy" data-source-line="121" data-uid="ent0033" id="entity_SVGSaveStrategy"><rect fill="#313139" height="48" rx="2.5" ry="2.5" style="stroke:#E7E7E7;stroke-width:0.5;" width="155.6621" x="196.73" y="575.45"/><ellipse cx="211.73" cy="591.45" fill="#2E5233" rx="11" ry="11" style="stroke:#E7E7E7;stroke-width:1;"/><path d="M214.6988,597.0906 Q214.1206,597.3875 213.48,597.5281 Q212.8394,597.6844 212.1363,597.6844 Q209.6363,597.6844 208.3081,596.0437 Q206.9956,594.3875 206.9956,591.2625 Q206.9956,588.1375 208.3081,586.4812 Q209.6363,584.825 212.1363,584.825 Q212.8394,584.825 213.48,584.9812 Q214.1363,585.1375 214.6988,585.4344 L214.6988,588.1531 Q214.0738,587.575 213.48,587.3094 Q212.8863,587.0281 212.2613,587.0281 Q210.9175,587.0281 210.23,588.1062 Q209.5425,589.1687 209.5425,591.2625 Q209.5425,593.3562 210.23,594.4344 Q210.9175,595.4969 212.2613,595.4969 Q212.8863,595.4969 213.48,595.2312 Q214.0738,594.95 214.6988,594.3719 L214.6988,597.0906 Z " fill="#FFFFFF"/><text fill="#FFFFFF" font-family="sans-serif" font-size="14" lengthAdjust="spacing" textLength="123.6621" x="225.73" y="596.2967">SVGSaveStrategy</text><line style="stroke:#E7E7E7;stroke-width:0.5;" x1="197.73" x2="351.3921" y1="607.45" y2="607.45"/><line style="stroke:#E7E7E7;stroke-width:0.5;" x1="197.73" x2="351.3921" y1="615.45" y2="615.45"/></g><!--class SVGLoadStrategy--><g class="entity" data-entity="SVGLoadStrategy" data-source-line="122" data-uid="ent0034" id="entity_SVGLoadStrategy"><rect fill="#313139" height="48" rx="2.5" ry="2.5" style="stroke:#E7E7E7;stroke-width:0.5;" width="155.1289" x="7" y="575.45"/><ellipse cx="22" cy="591.45" fill="#2E5233" rx="11" ry="11" style="stroke:#E7E7E7;stroke-width:1;"/><path d="M24.9688,597.0906 Q24.3906,597.3875 23.75,597.5281 Q23.1094,597.6844 22.4063,597.6844 Q19.9063,597.6844 18.5781,596.0437 Q17.2656,594.3875 17.2656,591.2625 Q17.2656,588.1375 18.5781,586.4812 Q19.9063,584.825 22.4063,584.825 Q23.1094,584.825 23.75,584.9812 Q24.4063,585.1375 24.9688,585.4344 L24.9688,588.1531 Q24.3438,587.575 23.75,587.3094 Q23.1563,587.0281 22.5313,587.0281 Q21.1875,587.0281 20.5,588.1062 Q19.8125,589.1687 19.8125,591.2625 Q19.8125,593.3562 20.5,594.4344 Q21.1875,595.4969 22.5313,595.4969 Q23.1563,595.4969 23.75,595.2312 Q24.3438,594.95 24.9688,594.3719 L24.9688,597.0906 Z " fill="#FFFFFF"/><text fill="#FFFFFF" font-family="sans-serif" font-size="14" lengthAdjust="spacing" textLength="123.1289" x="36" y="596.2967">SVGLoadStrategy</text><line style="stroke:#E7E7E7;stroke-width:0.5;" x1="8" x2="161.1289" y1="607.45" y2="607.45"/><line style="stroke:#E7E7E7;stroke-width:0.5;" x1="8" x2="161.1289" y1="615.45" y2="615.45"/></g><!--link DrawingState to IState--><g class="link" data-entity-1="DrawingState" data-entity-2="IState" data-source-line="23" data-uid="lnk7" id="link_DrawingState_IState"><path codeLine="23" d="M703.46,88.04 C734.58,113.29 771.2443,143.0363 812.7143,176.6963" fill="none" id="DrawingState-to-IState" style="stroke:#E7E7E7;stroke-width:1;"/><polygon fill="none" points="826.69,188.04,816.4955,172.0377,808.9331,181.3549,826.69,188.04" style="stroke:#E7E7E7;stroke-width:1;"/></g><!--link ErasingState to IState--><g class="link" data-entity-1="ErasingState" data-entity-2="IState" data-source-line="24" data-uid="lnk8" id="link_ErasingState_IState"><path codeLine="24" d="M841.67,88.04 C850.4,113.29 858.7317,137.3669 870.3617,171.0269" fill="none" id="ErasingState-to-IState" style="stroke:#E7E7E7;stroke-width:1;"/><polygon fill="none" points="876.24,188.04,876.0328,169.0675,864.6907,172.9863,876.24,188.04" style="stroke:#E7E7E7;stroke-width:1;"/></g><!--link GeneratingState to IState--><g class="link" data-entity-1="GeneratingState" data-entity-2="IState" data-source-line="25" data-uid="lnk9" id="link_GeneratingState_IState"><path codeLine="25" d="M988.58,88.04 C973.51,113.29 958.2117,138.9217 938.1317,172.5817" fill="none" id="GeneratingState-to-IState" style="stroke:#E7E7E7;stroke-width:1;"/><polygon fill="none" points="928.91,188.04,943.2845,175.6556,932.9789,169.5078,928.91,188.04" style="stroke:#E7E7E7;stroke-width:1;"/></g><!--link StateMachine to IState--><g class="link" data-entity-1="StateMachine" data-entity-2="IState" data-source-line="27" data-uid="lnk10" id="link_StateMachine_IState"><path codeLine="27" d="M1128.7,120.6 C1088.19,142.03 1047.3131,163.6433 1006.8031,185.0833" fill="none" id="StateMachine-to-IState" style="stroke:#E7E7E7;stroke-width:1;"/><polygon fill="#E7E7E7" points="1001.5,187.89,1011.3257,187.2154,1005.9192,185.5511,1007.5835,180.1446,1001.5,187.89" style="stroke:#E7E7E7;stroke-width:1;"/></g><!--link AddStrokeCommand to ICommand--><g class="link" data-entity-1="AddStrokeCommand" data-entity-2="ICommand" data-source-line="43" data-uid="lnk15" id="link_AddStrokeCommand_ICommand"><path codeLine="43" d="M767.74,458.63 C787.95,471.23 813.78,486.72 837.56,499.16 C893.1,528.2 942.271,550.084 987.531,569.144" fill="none" id="AddStrokeCommand-to-ICommand" style="stroke:#E7E7E7;stroke-width:1;"/><polygon fill="none" points="1004.12,576.13,989.8596,563.6143,985.2023,574.6737,1004.12,576.13" style="stroke:#E7E7E7;stroke-width:1;"/></g><!--link EraseStrokeCommand to ICommand--><g class="link" data-entity-1="EraseStrokeCommand" data-entity-2="ICommand" data-source-line="44" data-uid="lnk16" id="link_EraseStrokeCommand_ICommand"><path codeLine="44" d="M965.18,458.77 C982.61,484.84 1001.0834,512.4878 1022.0234,543.7978" fill="none" id="EraseStrokeCommand-to-ICommand" style="stroke:#E7E7E7;stroke-width:1;"/><polygon fill="none" points="1032.03,558.76,1027.0107,540.4623,1017.036,547.1334,1032.03,558.76" style="stroke:#E7E7E7;stroke-width:1;"/></g><!--link MoveLayerCommand to ICommand--><g class="link" data-entity-1="MoveLayerCommand" data-entity-2="ICommand" data-source-line="45" data-uid="lnk17" id="link_MoveLayerCommand_ICommand"><path codeLine="45" d="M1152.8,458.77 C1135.22,484.84 1116.5391,512.5298 1095.4091,543.8398" fill="none" id="MoveLayerCommand-to-ICommand" style="stroke:#E7E7E7;stroke-width:1;"/><polygon fill="none" points="1085.34,558.76,1100.3825,547.1962,1090.4357,540.4834,1085.34,558.76" style="stroke:#E7E7E7;stroke-width:1;"/></g><!--link CommandHistory to ICommand--><g class="link" data-entity-1="CommandHistory" data-entity-2="ICommand" data-source-line="55" data-uid="lnk19" id="link_CommandHistory_ICommand"><path codeLine="55" d="M1293.2,495.89 C1230.59,523.26 1165.7076,551.6165 1118.4976,572.2565" fill="none" id="CommandHistory-to-ICommand" style="stroke:#E7E7E7;stroke-width:1;"/><polygon fill="#E7E7E7" points="1113,574.66,1122.8487,574.7198,1117.5813,572.6571,1119.644,567.3897,1113,574.66" style="stroke:#E7E7E7;stroke-width:1;"/></g><!--link StateMachine to ToolManager--><g class="link" data-entity-1="StateMachine" data-entity-2="ToolManager" data-source-line="57" data-uid="lnk21" id="link_StateMachine_ToolManager"><path codeLine="57" d="M1234.56,120.35 C1234.56,139.17 1234.56,154.32 1234.56,173.74" fill="none" id="StateMachine-to-ToolManager" style="stroke:#E7E7E7;stroke-width:1;"/><polygon fill="#E7E7E7" points="1234.56,179.74,1238.56,170.74,1234.56,174.74,1230.56,170.74,1234.56,179.74" style="stroke:#E7E7E7;stroke-width:1;"/></g><!--link DrawingLayer to Node2D--><g class="link" data-entity-1="DrawingLayer" data-entity-2="Node2D" data-source-line="69" data-uid="lnk24" id="link_DrawingLayer_Node2D"><path codeLine="69" d="M479.54,631.93 C463.73,659.55 450.04,683.467 435.82,708.317" fill="none" id="DrawingLayer-to-Node2D" style="stroke:#E7E7E7;stroke-width:1;"/><polygon fill="none" points="426.88,723.94,441.0276,711.297,430.6123,705.3371,426.88,723.94" style="stroke:#E7E7E7;stroke-width:1;"/></g><!--link ToolManager to CommandHistory--><g class="link" data-entity-1="ToolManager" data-entity-2="CommandHistory" data-source-line="84" data-uid="lnk25" id="link_ToolManager_CommandHistory"><path codeLine="84" d="M1301.81,309.93 C1321.98,329.13 1339.7642,346.0431 1359.9442,365.2531" fill="none" id="ToolManager-to-CommandHistory" style="stroke:#E7E7E7;stroke-width:1;"/><polygon fill="#E7E7E7" points="1364.29,369.39,1360.5292,360.2874,1360.6685,365.9426,1355.0134,366.0818,1364.29,369.39" style="stroke:#E7E7E7;stroke-width:1;"/></g><!--reverse link Drawing to DrawingLayer--><g class="link" data-entity-1="Drawing" data-entity-2="DrawingLayer" data-source-line="100" data-uid="lnk28" id="link_Drawing_DrawingLayer"><path codeLine="100" d="M497.56,478.85 C497.56,507.63 497.56,538 497.56,566.84" fill="none" id="Drawing-backto-DrawingLayer" style="stroke:#E7E7E7;stroke-width:1;"/><polygon fill="#E7E7E7" points="497.56,466.85,493.56,472.85,497.56,478.85,501.56,472.85,497.56,466.85" style="stroke:#E7E7E7;stroke-width:1;"/></g><!--reverse link DrawingLayer to Stroke--><g class="link" data-entity-1="DrawingLayer" data-entity-2="Stroke" data-source-line="101" data-uid="lnk29" id="link_DrawingLayer_Stroke"><path codeLine="101" d="M521.2789,642.3744 C532.3789,661.9944 540.97,677.19 553.47,699.3" fill="none" id="DrawingLayer-backto-Stroke" style="stroke:#E7E7E7;stroke-width:1;"/><polygon fill="#E7E7E7" points="515.37,631.93,514.843,639.1218,521.2789,642.3744,521.8059,635.1826,515.37,631.93" style="stroke:#E7E7E7;stroke-width:1;"/></g><!--link FileStrategyManager to IFileSaveStrategy--><g class="link" data-entity-1="FileStrategyManager" data-entity-2="IFileSaveStrategy" data-source-line="124" data-uid="lnk35" id="link_FileStrategyManager_IFileSaveStrategy"><path codeLine="124" d="M274.56,285.69 C274.56,320.3 274.56,363.81 274.56,395.78" fill="none" id="FileStrategyManager-to-IFileSaveStrategy" style="stroke:#E7E7E7;stroke-width:1;"/><polygon fill="#E7E7E7" points="274.56,401.78,278.56,392.78,274.56,396.78,270.56,392.78,274.56,401.78" style="stroke:#E7E7E7;stroke-width:1;"/></g><!--link FileStrategyManager to IFileLoadStrategy--><g class="link" data-entity-1="FileStrategyManager" data-entity-2="IFileLoadStrategy" data-source-line="125" data-uid="lnk36" id="link_FileStrategyManager_IFileLoadStrategy"><path codeLine="125" d="M234.27,285.69 C199.19,320.3 153.3015,365.5965 120.8915,397.5665" fill="none" id="FileStrategyManager-to-IFileLoadStrategy" style="stroke:#E7E7E7;stroke-width:1;"/><polygon fill="#E7E7E7" points="116.62,401.78,125.8363,398.3074,120.1796,398.2687,120.2183,392.612,116.62,401.78" style="stroke:#E7E7E7;stroke-width:1;"/></g><!--reverse link IFileSaveStrategy to SVGSaveStrategy--><g class="link" data-entity-1="IFileSaveStrategy" data-entity-2="SVGSaveStrategy" data-source-line="127" data-uid="lnk38" id="link_IFileSaveStrategy_SVGSaveStrategy"><path codeLine="127" d="M274.56,484.85 C274.56,516.5 274.56,546.58 274.56,575.03" fill="none" id="IFileSaveStrategy-backto-SVGSaveStrategy" style="stroke:#E7E7E7;stroke-width:1;"/><polygon fill="none" points="274.56,466.85,268.56,484.85,280.56,484.85,274.56,466.85" style="stroke:#E7E7E7;stroke-width:1;"/></g><!--reverse link IFileLoadStrategy to SVGLoadStrategy--><g class="link" data-entity-1="IFileLoadStrategy" data-entity-2="SVGLoadStrategy" data-source-line="128" data-uid="lnk40" id="link_IFileLoadStrategy_SVGLoadStrategy"><path codeLine="128" d="M84.56,484.85 C84.56,516.5 84.56,546.58 84.56,575.03" fill="none" id="IFileLoadStrategy-backto-SVGLoadStrategy" style="stroke:#E7E7E7;stroke-width:1;"/><polygon fill="none" points="84.56,466.85,78.56,484.85,90.56,484.85,84.56,466.85" style="stroke:#E7E7E7;stroke-width:1;"/></g><!--link FileStrategyManager to Drawing--><g class="link" data-entity-1="FileStrategyManager" data-entity-2="Drawing" data-source-line="130" data-uid="lnk41" id="link_FileStrategyManager_Drawing"><path codeLine="130" d="M321.86,285.69 C363.02,320.3 417.3172,365.9491 455.3472,397.9191" fill="none" id="FileStrategyManager-to-Drawing" style="stroke:#E7E7E7;stroke-width:1;"/><polygon fill="#E7E7E7" points="459.94,401.78,455.6248,392.9268,456.1127,398.5626,450.4769,399.0505,459.94,401.78" style="stroke:#E7E7E7;stroke-width:1;"/></g><!--link ToolManager to Drawing--><g class="link" data-entity-1="ToolManager" data-entity-2="Drawing" data-source-line="131" data-uid="lnk42" id="link_ToolManager_Drawing"><path codeLine="131" d="M1098.75,289.05 C1072.32,296.58 1044.71,303.85 1018.56,309.67 C846.1,348.1 794.01,316.31 625.56,369.67 C600.24,377.69 579.0348,387.3365 556.7448,399.1165" fill="none" id="ToolManager-to-Drawing" style="stroke:#E7E7E7;stroke-width:1;"/><polygon fill="#E7E7E7" points="551.44,401.92,561.2661,401.2513,555.8606,399.5838,557.5281,394.1783,551.44,401.92" style="stroke:#E7E7E7;stroke-width:1;"/></g><!--SRC=[ZLHDRzim3BtxL_3MTAilFMS6XYPB0xHRqNQz2nRR276aG9Ap1ct_-sHzHLQ-x8DjyV6Hr2Eb2_XnuYaku4aJZN1FwWNZQDOdtOkw8KevZgV0Hm7cAM7k8jMjbCYrNLZaEsm4e_24pZRoVgfxNwOUVzUqmryRGJHGR3JfmRU4qmRdVDtgaNrFDoOFc1XVHS6uHlbAQWnbV7Zgj0D68T3qdUcuE9xlP2edmKIIVuo_kMqwqrGIbPbco54I7Qr5IeEo_AnylKLAxW5PY1vMz1fHbZlWN2Clu4QiLcQRy42qKOYVxNoYSA16ZT-nResIKLXEnIZHwYUbJrgA9NfYeXSU0kx51k_85cKm5ta4hqB0zoDb3dd43FPv_VAMAItaDWwsaRHUZeDp1QtPdhKTmIMcU9J7uwCeNxsYcM9kyOX1lgmWs-1OyrxlduLexWadRoW7z7ycgD3ms7BDLWWtdG2e1fx_tuBYzIGx2bRVADgTgNdiMbA1-wfkIprdsuKGx7p9tGR1xz3eP6CCBJaH9zReQm7gljwQYRvmNm-QKm0RavK9xhiLWinG-z_HPNRl1NkMpxOuhQjhOZ_x0552q0dHf1EwhNKhXrxaWTphMjgYAgZyjRlxkrxs6IzOcsglAtWGHY3b8NUnFYzOlUIeL9It4TAzatc0RsNP6wJ-e7IeIpnaJdwn1ZjtSpxUjid0pFyCbAKB4FZvq51MQzDz8hTZfQMfy0hcrfzi8gS2jLinLCUfLZxBlnE4Hdu5pMx9tCb9Bk0yNopEXOLNWpzlrtY0bgOvHVFDVfcbUNRMD4nH7DBBNbPveQSz-q6ptCQjNNyUYfcLqtCSLgUVjRt3wEt_0G00]--></g></svg>