<svg xmlns="http://www.w3.org/2000/svg" xmlns:xlink="http://www.w3.org/1999/xlink" contentStyleType="text/css" data-diagram-type="CLASS" height="950px" preserveAspectRatio="none" style="width:675px;height:950px;background:#1B1B1B;" version="1.1" viewBox="0 0 675 950" width="675px" zoomAndPan="magnify"><defs/><g><rect fill="#1B1B1B" height="950" style="stroke:none;stroke-width:1;" width="675" x="0" y="0"/><!--class CharachterValue--><g class="entity" data-entity="CharachterValue" data-source-line="1" data-uid="ent0002" id="entity_CharachterValue"><rect fill="#313139" height="80.5938" rx="2.5" ry="2.5" style="stroke:#E7E7E7;stroke-width:0.5;" width="224.0918" x="96.85" y="705.83"/><ellipse cx="145.8842" cy="721.83" fill="#2E5233" rx="11" ry="11" style="stroke:#E7E7E7;stroke-width:1;"/><path d="M148.8529,727.4706 Q148.2748,727.7675 147.6342,727.9081 Q146.9936,728.0644 146.2904,728.0644 Q143.7904,728.0644 142.4623,726.4237 Q141.1498,724.7675 141.1498,721.6425 Q141.1498,718.5175 142.4623,716.8612 Q143.7904,715.205 146.2904,715.205 Q146.9936,715.205 147.6342,715.3612 Q148.2904,715.5175 148.8529,715.8144 L148.8529,718.5331 Q148.2279,717.955 147.6342,717.6894 Q147.0404,717.4081 146.4154,717.4081 Q145.0717,717.4081 144.3842,718.4862 Q143.6967,719.5487 143.6967,721.6425 Q143.6967,723.7362 144.3842,724.8144 Q145.0717,725.8769 146.4154,725.8769 Q147.0404,725.8769 147.6342,725.6112 Q148.2279,725.33 148.8529,724.7519 L148.8529,727.4706 Z " fill="#FFFFFF"/><text fill="#FFFFFF" font-family="sans-serif" font-size="14" lengthAdjust="spacing" textLength="117.5234" x="166.3842" y="726.6767">CharachterValue</text><line style="stroke:#E7E7E7;stroke-width:0.5;" x1="97.85" x2="319.9418" y1="737.83" y2="737.83"/><polygon fill="none" points="107.85,746.4784,111.85,750.4784,107.85,754.4784,103.85,750.4784" style="stroke:#B38D22;stroke-width:1;"/><text fill="#FFFFFF" font-family="sans-serif" font-size="14" lengthAdjust="spacing" textLength="198.0918" x="116.85" y="754.8251">List&lt;int&gt; charachterValues;</text><line style="stroke:#E7E7E7;stroke-width:0.5;" x1="97.85" x2="319.9418" y1="762.1269" y2="762.1269"/><ellipse cx="107.85" cy="775.7753" fill="#84BE84" rx="3" ry="3" style="stroke:#038048;stroke-width:1;"/><text fill="#FFFFFF" font-family="sans-serif" font-size="14" lengthAdjust="spacing" textLength="113.75" x="116.85" y="779.122">int[] GetValue();</text></g><!--class CharachterSatisfaction--><g class="entity" data-entity="CharachterSatisfaction" data-source-line="7" data-uid="ent0003" id="entity_CharachterSatisfaction"><rect fill="#313139" height="96.8906" rx="2.5" ry="2.5" style="stroke:#E7E7E7;stroke-width:0.5;" width="339.5303" x="121.13" y="846.42"/><ellipse cx="206.569" cy="862.42" fill="#2E5233" rx="11" ry="11" style="stroke:#E7E7E7;stroke-width:1;"/><path d="M209.5377,868.0606 Q208.9596,868.3575 208.319,868.4981 Q207.6783,868.6544 206.9752,868.6544 Q204.4752,868.6544 203.1471,867.0138 Q201.8346,865.3575 201.8346,862.2325 Q201.8346,859.1075 203.1471,857.4513 Q204.4752,855.795 206.9752,855.795 Q207.6783,855.795 208.319,855.9513 Q208.9752,856.1075 209.5377,856.4044 L209.5377,859.1231 Q208.9127,858.545 208.319,858.2794 Q207.7252,857.9981 207.1002,857.9981 Q205.7565,857.9981 205.069,859.0763 Q204.3815,860.1388 204.3815,862.2325 Q204.3815,864.3263 205.069,865.4044 Q205.7565,866.4669 207.1002,866.4669 Q207.7252,866.4669 208.319,866.2013 Q208.9127,865.92 209.5377,865.3419 L209.5377,868.0606 Z " fill="#FFFFFF"/><text fill="#FFFFFF" font-family="sans-serif" font-size="14" lengthAdjust="spacing" textLength="160.1523" x="227.069" y="867.2667">CharachterSatisfaction</text><line style="stroke:#E7E7E7;stroke-width:0.5;" x1="122.13" x2="459.6603" y1="878.42" y2="878.42"/><polygon fill="none" points="132.13,887.0684,136.13,891.0684,132.13,895.0684,128.13,891.0684" style="stroke:#B38D22;stroke-width:1;"/><text fill="#FFFFFF" font-family="sans-serif" font-size="14" lengthAdjust="spacing" textLength="109.5801" x="141.13" y="895.4151">int Satisfaction;</text><line style="stroke:#E7E7E7;stroke-width:0.5;" x1="122.13" x2="459.6603" y1="902.7169" y2="902.7169"/><ellipse cx="132.13" cy="916.3653" fill="#84BE84" rx="3" ry="3" style="stroke:#038048;stroke-width:1;"/><text fill="#FFFFFF" font-family="sans-serif" font-size="14" lengthAdjust="spacing" textLength="313.5303" x="141.13" y="919.712">void CalculateSatisfaction(int[] actualValue);</text><ellipse cx="132.13" cy="932.6622" fill="#84BE84" rx="3" ry="3" style="stroke:#038048;stroke-width:1;"/><text fill="#FFFFFF" font-family="sans-serif" font-size="14" lengthAdjust="spacing" textLength="145.4551" x="141.13" y="936.0089">int GetSatisfaction();</text></g><!--class Charachter--><g class="entity" data-entity="Charachter" data-source-line="14" data-uid="ent0004" id="entity_Charachter"><rect fill="#313139" height="243.5625" rx="2.5" ry="2.5" style="stroke:#E7E7E7;stroke-width:0.5;" width="342.7432" x="202.53" y="402.26"/><ellipse cx="330.656" cy="418.26" fill="#2E5233" rx="11" ry="11" style="stroke:#E7E7E7;stroke-width:1;"/><path d="M333.6247,423.9006 Q333.0466,424.1975 332.406,424.3381 Q331.7654,424.4944 331.0622,424.4944 Q328.5622,424.4944 327.2341,422.8538 Q325.9216,421.1975 325.9216,418.0725 Q325.9216,414.9475 327.2341,413.2913 Q328.5622,411.635 331.0622,411.635 Q331.7654,411.635 332.406,411.7913 Q333.0622,411.9475 333.6247,412.2444 L333.6247,414.9631 Q332.9997,414.385 332.406,414.1194 Q331.8122,413.8381 331.1872,413.8381 Q329.8435,413.8381 329.156,414.9163 Q328.4685,415.9788 328.4685,418.0725 Q328.4685,420.1663 329.156,421.2444 Q329.8435,422.3069 331.1872,422.3069 Q331.8122,422.3069 332.406,422.0413 Q332.9997,421.76 333.6247,421.1819 L333.6247,423.9006 Z " fill="#FFFFFF"/><text fill="#FFFFFF" font-family="sans-serif" font-size="14" lengthAdjust="spacing" textLength="77.9912" x="351.156" y="423.1067">Charachter</text><line style="stroke:#E7E7E7;stroke-width:0.5;" x1="203.53" x2="544.2732" y1="434.26" y2="434.26"/><polygon fill="none" points="213.53,442.9084,217.53,446.9084,213.53,450.9084,209.53,446.9084" style="stroke:#B38D22;stroke-width:1;"/><text fill="#FFFFFF" font-family="sans-serif" font-size="14" lengthAdjust="spacing" textLength="75.6123" x="222.53" y="451.2551">string info;</text><polygon fill="none" points="213.53,459.2053,217.53,463.2053,213.53,467.2053,209.53,463.2053" style="stroke:#B38D22;stroke-width:1;"/><text fill="#FFFFFF" font-family="sans-serif" font-size="14" lengthAdjust="spacing" textLength="89.0586" x="222.53" y="467.552">string name;</text><polygon fill="none" points="213.53,475.5022,217.53,479.5022,213.53,483.5022,209.53,479.5022" style="stroke:#B38D22;stroke-width:1;"/><text fill="#FFFFFF" font-family="sans-serif" font-size="14" lengthAdjust="spacing" textLength="283.1855" x="222.53" y="483.8489">CharachterSatisfaction floorSatisfaction;</text><polygon fill="none" points="213.53,491.7991,217.53,495.7991,213.53,499.7991,209.53,495.7991" style="stroke:#B38D22;stroke-width:1;"/><text fill="#FFFFFF" font-family="sans-serif" font-size="14" lengthAdjust="spacing" textLength="316.7432" x="222.53" y="500.1457">CharachterSatisfaction roomSizeSatisfaction;</text><polygon fill="none" points="213.53,508.0959,217.53,512.0959,213.53,516.0959,209.53,512.0959" style="stroke:#B38D22;stroke-width:1;"/><text fill="#FFFFFF" font-family="sans-serif" font-size="14" lengthAdjust="spacing" textLength="288.7158" x="222.53" y="516.4426">CharachterSatisfaction noiseSatisfaction;</text><polygon fill="none" points="213.53,524.3928,217.53,528.3928,213.53,532.3928,209.53,528.3928" style="stroke:#B38D22;stroke-width:1;"/><text fill="#FFFFFF" font-family="sans-serif" font-size="14" lengthAdjust="spacing" textLength="287.4717" x="222.53" y="532.7395">CharachterSatisfaction trashSatisfaction;</text><polygon fill="none" points="213.53,540.6897,217.53,544.6897,213.53,548.6897,209.53,544.6897" style="stroke:#B38D22;stroke-width:1;"/><text fill="#FFFFFF" font-family="sans-serif" font-size="14" lengthAdjust="spacing" textLength="291.3955" x="222.53" y="549.0364">CharachterSatisfaction socialSatisfaction;</text><polygon fill="none" points="213.53,556.9866,217.53,560.9866,213.53,564.9866,209.53,560.9866" style="stroke:#B38D22;stroke-width:1;"/><text fill="#FFFFFF" font-family="sans-serif" font-size="14" lengthAdjust="spacing" textLength="214.9014" x="222.53" y="565.3332">CharachterValue causingNoise</text><polygon fill="none" points="213.53,573.2834,217.53,577.2834,213.53,581.2834,209.53,577.2834" style="stroke:#B38D22;stroke-width:1;"/><text fill="#FFFFFF" font-family="sans-serif" font-size="14" lengthAdjust="spacing" textLength="219.8369" x="222.53" y="581.6301">CharachterValue causingTrash;</text><polygon fill="none" points="213.53,589.5803,217.53,593.5803,213.53,597.5803,209.53,593.5803" style="stroke:#B38D22;stroke-width:1;"/><text fill="#FFFFFF" font-family="sans-serif" font-size="14" lengthAdjust="spacing" textLength="150.1719" x="222.53" y="597.927">int totaalSatisfaction;</text><polygon fill="none" points="213.53,605.8772,217.53,609.8772,213.53,613.8772,209.53,609.8772" style="stroke:#B38D22;stroke-width:1;"/><text fill="#FFFFFF" font-family="sans-serif" font-size="14" lengthAdjust="spacing" textLength="114.2969" x="222.53" y="614.2239">CharachterUI ui;</text><line style="stroke:#E7E7E7;stroke-width:0.5;" x1="203.53" x2="544.2732" y1="621.5256" y2="621.5256"/><ellipse cx="213.53" cy="635.1741" fill="#84BE84" rx="3" ry="3" style="stroke:#038048;stroke-width:1;"/><text fill="#FFFFFF" font-family="sans-serif" font-size="14" lengthAdjust="spacing" textLength="217.6563" x="222.53" y="638.5207">void UpdateTotalSatisfaction();</text></g><!--class Appartment--><g class="entity" data-entity="Appartment" data-source-line="30" data-uid="ent0005" id="entity_Appartment"><rect fill="#313139" height="162.0781" rx="2.5" ry="2.5" style="stroke:#E7E7E7;stroke-width:0.5;" width="311.7969" x="9" y="180.18"/><ellipse cx="118.7544" cy="196.18" fill="#2E5233" rx="11" ry="11" style="stroke:#E7E7E7;stroke-width:1;"/><path d="M121.7231,201.8206 Q121.145,202.1175 120.5044,202.2581 Q119.8638,202.4144 119.1606,202.4144 Q116.6606,202.4144 115.3325,200.7737 Q114.02,199.1175 114.02,195.9925 Q114.02,192.8675 115.3325,191.2112 Q116.6606,189.555 119.1606,189.555 Q119.8638,189.555 120.5044,189.7112 Q121.1606,189.8675 121.7231,190.1644 L121.7231,192.8831 Q121.0981,192.305 120.5044,192.0394 Q119.9106,191.7581 119.2856,191.7581 Q117.9419,191.7581 117.2544,192.8362 Q116.5669,193.8987 116.5669,195.9925 Q116.5669,198.0862 117.2544,199.1644 Q117.9419,200.2269 119.2856,200.2269 Q119.9106,200.2269 120.5044,199.9612 Q121.0981,199.68 121.7231,199.1019 L121.7231,201.8206 Z " fill="#FFFFFF"/><text fill="#FFFFFF" font-family="sans-serif" font-size="14" lengthAdjust="spacing" textLength="83.7881" x="139.2544" y="201.0267">Appartment</text><line style="stroke:#E7E7E7;stroke-width:0.5;" x1="10" x2="319.7969" y1="212.18" y2="212.18"/><polygon fill="none" points="20,220.8284,24,224.8284,20,228.8284,16,224.8284" style="stroke:#B38D22;stroke-width:1;"/><text fill="#FFFFFF" font-family="sans-serif" font-size="14" lengthAdjust="spacing" textLength="59.124" x="29" y="229.1751">int floor;</text><polygon fill="none" points="20,237.1253,24,241.1253,20,245.1253,16,241.1253" style="stroke:#B38D22;stroke-width:1;"/><text fill="#FFFFFF" font-family="sans-serif" font-size="14" lengthAdjust="spacing" textLength="120.1826" x="29" y="245.472">int roomNumber;</text><polygon fill="none" points="20,253.4222,24,257.4222,20,261.4222,16,257.4222" style="stroke:#B38D22;stroke-width:1;"/><text fill="#FFFFFF" font-family="sans-serif" font-size="14" lengthAdjust="spacing" textLength="92.6816" x="29" y="261.7689">int roomSize;</text><polygon fill="none" points="20,269.7191,24,273.7191,20,277.7191,16,273.7191" style="stroke:#B38D22;stroke-width:1;"/><text fill="#FFFFFF" font-family="sans-serif" font-size="14" lengthAdjust="spacing" textLength="144.5732" x="29" y="278.0657">Charachter resident;</text><polygon fill="none" points="20,286.0159,24,290.0159,20,294.0159,16,290.0159" style="stroke:#B38D22;stroke-width:1;"/><text fill="#FFFFFF" font-family="sans-serif" font-size="14" lengthAdjust="spacing" textLength="204.7295" x="29" y="294.3626">List&lt;Charachter&gt; neighbors;</text><line style="stroke:#E7E7E7;stroke-width:0.5;" x1="10" x2="319.7969" y1="301.6644" y2="301.6644"/><ellipse cx="20" cy="315.3128" fill="#84BE84" rx="3" ry="3" style="stroke:#038048;stroke-width:1;"/><text fill="#FFFFFF" font-family="sans-serif" font-size="14" lengthAdjust="spacing" textLength="278.3115" x="29" y="318.6595">void AddResident(Charachter resident);</text><ellipse cx="20" cy="331.6097" fill="#84BE84" rx="3" ry="3" style="stroke:#038048;stroke-width:1;"/><text fill="#FFFFFF" font-family="sans-serif" font-size="14" lengthAdjust="spacing" textLength="285.7969" x="29" y="334.9564">void AddNeighbor(Charachter neighbor);</text></g><!--class RoundManager--><g class="entity" data-entity="RoundManager" data-source-line="41" data-uid="ent0006" id="entity_RoundManager"><rect fill="#313139" height="113.1875" rx="2.5" ry="2.5" style="stroke:#E7E7E7;stroke-width:0.5;" width="262.7354" x="329.53" y="7"/><ellipse cx="403.5017" cy="23" fill="#2E5233" rx="11" ry="11" style="stroke:#E7E7E7;stroke-width:1;"/><path d="M406.4704,28.6406 Q405.8923,28.9375 405.2517,29.0781 Q404.6111,29.2344 403.9079,29.2344 Q401.4079,29.2344 400.0798,27.5938 Q398.7673,25.9375 398.7673,22.8125 Q398.7673,19.6875 400.0798,18.0313 Q401.4079,16.375 403.9079,16.375 Q404.6111,16.375 405.2517,16.5313 Q405.9079,16.6875 406.4704,16.9844 L406.4704,19.7031 Q405.8454,19.125 405.2517,18.8594 Q404.6579,18.5781 404.0329,18.5781 Q402.6892,18.5781 402.0017,19.6563 Q401.3142,20.7188 401.3142,22.8125 Q401.3142,24.9063 402.0017,25.9844 Q402.6892,27.0469 404.0329,27.0469 Q404.6579,27.0469 405.2517,26.7813 Q405.8454,26.5 406.4704,25.9219 L406.4704,28.6406 Z " fill="#FFFFFF"/><text fill="#FFFFFF" font-family="sans-serif" font-size="14" lengthAdjust="spacing" textLength="106.292" x="424.0017" y="27.8467">RoundManager</text><line style="stroke:#E7E7E7;stroke-width:0.5;" x1="330.53" x2="591.2654" y1="39" y2="39"/><polygon fill="none" points="340.53,47.6484,344.53,51.6484,340.53,55.6484,336.53,51.6484" style="stroke:#B38D22;stroke-width:1;"/><text fill="#FFFFFF" font-family="sans-serif" font-size="14" lengthAdjust="spacing" textLength="236.7354" x="349.53" y="55.9951">List&lt;Charachter&gt; allCharachters;</text><polygon fill="none" points="340.53,63.9453,344.53,67.9453,340.53,71.9453,336.53,67.9453" style="stroke:#B38D22;stroke-width:1;"/><text fill="#FFFFFF" font-family="sans-serif" font-size="14" lengthAdjust="spacing" textLength="65.9668" x="349.53" y="72.292">int index;</text><polygon fill="none" points="340.53,80.2422,344.53,84.2422,340.53,88.2422,336.53,84.2422" style="stroke:#B38D22;stroke-width:1;"/><text fill="#FFFFFF" font-family="sans-serif" font-size="14" lengthAdjust="spacing" textLength="135.5635" x="349.53" y="88.5889">RequestForm form;</text><line style="stroke:#E7E7E7;stroke-width:0.5;" x1="330.53" x2="591.2654" y1="95.8906" y2="95.8906"/><ellipse cx="340.53" cy="109.5391" fill="#84BE84" rx="3" ry="3" style="stroke:#038048;stroke-width:1;"/><text fill="#FFFFFF" font-family="sans-serif" font-size="14" lengthAdjust="spacing" textLength="160.5693" x="349.53" y="112.8857">void NextCharachter();</text></g><!--class RequestForm--><g class="entity" data-entity="RequestForm" data-source-line="49" data-uid="ent0007" id="entity_RequestForm"><rect fill="#313139" height="96.8906" rx="2.5" ry="2.5" style="stroke:#E7E7E7;stroke-width:0.5;" width="242.207" x="426.79" y="212.78"/><ellipse cx="496.8891" cy="228.78" fill="#2E5233" rx="11" ry="11" style="stroke:#E7E7E7;stroke-width:1;"/><path d="M499.8579,234.4206 Q499.2797,234.7175 498.6391,234.8581 Q497.9985,235.0144 497.2954,235.0144 Q494.7954,235.0144 493.4672,233.3737 Q492.1547,231.7175 492.1547,228.5925 Q492.1547,225.4675 493.4672,223.8112 Q494.7954,222.155 497.2954,222.155 Q497.9985,222.155 498.6391,222.3112 Q499.2954,222.4675 499.8579,222.7644 L499.8579,225.4831 Q499.2329,224.905 498.6391,224.6394 Q498.0454,224.3581 497.4204,224.3581 Q496.0766,224.3581 495.3891,225.4362 Q494.7016,226.4987 494.7016,228.5925 Q494.7016,230.6862 495.3891,231.7644 Q496.0766,232.8269 497.4204,232.8269 Q498.0454,232.8269 498.6391,232.5612 Q499.2329,232.28 499.8579,231.7019 L499.8579,234.4206 Z " fill="#FFFFFF"/><text fill="#FFFFFF" font-family="sans-serif" font-size="14" lengthAdjust="spacing" textLength="93.5088" x="517.3891" y="233.6267">RequestForm</text><line style="stroke:#E7E7E7;stroke-width:0.5;" x1="427.79" x2="667.997" y1="244.78" y2="244.78"/><polygon fill="none" points="437.79,253.4284,441.79,257.4284,437.79,261.4284,433.79,257.4284" style="stroke:#B38D22;stroke-width:1;"/><text fill="#FFFFFF" font-family="sans-serif" font-size="14" lengthAdjust="spacing" textLength="216.207" x="446.79" y="261.7751">Charachter currentCharachter;</text><polygon fill="none" points="437.79,269.7253,441.79,273.7253,437.79,277.7253,433.79,273.7253" style="stroke:#B38D22;stroke-width:1;"/><text fill="#FFFFFF" font-family="sans-serif" font-size="14" lengthAdjust="spacing" textLength="88.5664" x="446.79" y="278.072">UI elements;</text><line style="stroke:#E7E7E7;stroke-width:0.5;" x1="427.79" x2="667.997" y1="285.3738" y2="285.3738"/><ellipse cx="437.79" cy="299.0222" fill="#84BE84" rx="3" ry="3" style="stroke:#038048;stroke-width:1;"/><text fill="#FFFFFF" font-family="sans-serif" font-size="14" lengthAdjust="spacing" textLength="185.3223" x="446.79" y="302.3689">void change UIElements();</text></g><!--class CharachterUI--><g class="entity" data-entity="CharachterUI" data-source-line="56" data-uid="ent0008" id="entity_CharachterUI"><rect fill="#313139" height="80.5938" rx="2.5" ry="2.5" style="stroke:#E7E7E7;stroke-width:0.5;" width="211.3223" x="427.24" y="705.83"/><ellipse cx="482.4675" cy="721.83" fill="#2E5233" rx="11" ry="11" style="stroke:#E7E7E7;stroke-width:1;"/><path d="M485.4363,727.4706 Q484.8582,727.7675 484.2175,727.9081 Q483.5769,728.0644 482.8738,728.0644 Q480.3738,728.0644 479.0457,726.4237 Q477.7332,724.7675 477.7332,721.6425 Q477.7332,718.5175 479.0457,716.8612 Q480.3738,715.205 482.8738,715.205 Q483.5769,715.205 484.2175,715.3612 Q484.8738,715.5175 485.4363,715.8144 L485.4363,718.5331 Q484.8113,717.955 484.2175,717.6894 Q483.6238,717.4081 482.9988,717.4081 Q481.655,717.4081 480.9675,718.4862 Q480.28,719.5487 480.28,721.6425 Q480.28,723.7362 480.9675,724.8144 Q481.655,725.8769 482.9988,725.8769 Q483.6238,725.8769 484.2175,725.6112 Q484.8113,725.33 485.4363,724.7519 L485.4363,727.4706 Z " fill="#FFFFFF"/><text fill="#FFFFFF" font-family="sans-serif" font-size="14" lengthAdjust="spacing" textLength="92.3672" x="502.9675" y="726.6767">CharachterUI</text><line style="stroke:#E7E7E7;stroke-width:0.5;" x1="428.24" x2="637.5623" y1="737.83" y2="737.83"/><polygon fill="none" points="438.24,746.4784,442.24,750.4784,438.24,754.4784,434.24,750.4784" style="stroke:#B38D22;stroke-width:1;"/><text fill="#FFFFFF" font-family="sans-serif" font-size="14" lengthAdjust="spacing" textLength="88.5664" x="447.24" y="754.8251">UI elements;</text><line style="stroke:#E7E7E7;stroke-width:0.5;" x1="428.24" x2="637.5623" y1="762.1269" y2="762.1269"/><ellipse cx="438.24" cy="775.7753" fill="#84BE84" rx="3" ry="3" style="stroke:#038048;stroke-width:1;"/><text fill="#FFFFFF" font-family="sans-serif" font-size="14" lengthAdjust="spacing" textLength="185.3223" x="447.24" y="779.122">void change UIElements();</text></g><!--link CharachterValue to CharachterSatisfaction--><g class="link" data-entity-1="CharachterValue" data-entity-2="CharachterSatisfaction" data-source-line="62" data-uid="lnk9" id="link_CharachterValue_CharachterSatisfaction"><path codeLine="62" d="M231.09,786.83 C241.29,805.08 250.5422,821.6428 261.2422,840.7828" fill="none" id="CharachterValue-to-CharachterSatisfaction" style="stroke:#E7E7E7;stroke-width:1;"/><polygon fill="#E7E7E7" points="264.17,846.02,263.2698,836.2124,261.7302,841.6557,256.2869,840.1161,264.17,846.02" style="stroke:#E7E7E7;stroke-width:1;"/></g><!--link Charachter to CharachterValue--><g class="link" data-entity-1="Charachter" data-entity-2="CharachterValue" data-source-line="63" data-uid="lnk10" id="link_Charachter_CharachterValue"><path codeLine="63" d="M283.19,646.03 C267.02,667.6 258.47,679.01 245.66,696.09" fill="none" id="Charachter-to-CharachterValue" style="stroke:#E7E7E7;stroke-width:1;stroke-dasharray:7.0,7.0;"/><polygon fill="#E7E7E7" points="238.46,705.69,245.26,703.29,245.66,696.09,238.86,698.49,238.46,705.69" style="stroke:#E7E7E7;stroke-width:1;"/></g><!--link Charachter to CharachterSatisfaction--><g class="link" data-entity-1="Charachter" data-entity-2="CharachterSatisfaction" data-source-line="64" data-uid="lnk11" id="link_Charachter_CharachterSatisfaction"><path codeLine="64" d="M364.99,646.23 C359.8,690.88 351.65,741.5 338.9,786.42 C333.18,806.56 329.4257,816.931 320.8957,835.161" fill="none" id="Charachter-to-CharachterSatisfaction" style="stroke:#E7E7E7;stroke-width:1;stroke-dasharray:7.0,7.0;"/><polygon fill="#E7E7E7" points="315.81,846.03,321.9759,842.2907,320.8957,835.161,314.7299,838.9003,315.81,846.03" style="stroke:#E7E7E7;stroke-width:1;"/></g><!--link Appartment to Charachter--><g class="link" data-entity-1="Appartment" data-entity-2="Charachter" data-source-line="65" data-uid="lnk12" id="link_Appartment_Charachter"><path codeLine="65" d="M229.31,342.61 C244.42,361.47 253.3452,372.6064 269.5352,392.8064" fill="none" id="Appartment-to-Charachter" style="stroke:#E7E7E7;stroke-width:1;stroke-dasharray:7.0,7.0;"/><polygon fill="#E7E7E7" points="277.04,402.17,276.4088,394.9866,269.5352,392.8064,270.1664,399.9898,277.04,402.17" style="stroke:#E7E7E7;stroke-width:1;"/></g><!--link RequestForm to Charachter--><g class="link" data-entity-1="RequestForm" data-entity-2="Charachter" data-source-line="66" data-uid="lnk13" id="link_RequestForm_Charachter"><path codeLine="66" d="M515.98,310.06 C498.67,336.02 483.0713,359.4087 461.3213,391.9987" fill="none" id="RequestForm-to-Charachter" style="stroke:#E7E7E7;stroke-width:1;stroke-dasharray:7.0,7.0;"/><polygon fill="#E7E7E7" points="454.66,401.98,461.3178,399.2098,461.3213,391.9987,454.6636,394.7689,454.66,401.98" style="stroke:#E7E7E7;stroke-width:1;"/></g><!--link RoundManager to Charachter--><g class="link" data-entity-1="RoundManager" data-entity-2="Charachter" data-source-line="67" data-uid="lnk14" id="link_RoundManager_Charachter"><path codeLine="67" d="M431.36,120.58 C422.79,139.09 414.29,160.1 408.9,180.18 C389.55,252.28 381.4606,323.5411 377.5206,389.9611" fill="none" id="RoundManager-to-Charachter" style="stroke:#E7E7E7;stroke-width:1;stroke-dasharray:7.0,7.0;"/><polygon fill="#E7E7E7" points="376.81,401.94,381.1583,396.1874,377.5206,389.9611,373.1723,395.7137,376.81,401.94" style="stroke:#E7E7E7;stroke-width:1;"/></g><!--link RoundManager to RequestForm--><g class="link" data-entity-1="RoundManager" data-entity-2="RequestForm" data-source-line="68" data-uid="lnk15" id="link_RoundManager_RequestForm"><path codeLine="68" d="M485.83,120.65 C498.73,149.67 509.443,173.7557 521.773,201.4757" fill="none" id="RoundManager-to-RequestForm" style="stroke:#E7E7E7;stroke-width:1;stroke-dasharray:7.0,7.0;"/><polygon fill="#E7E7E7" points="526.65,212.44,527.8663,205.3322,521.773,201.4757,520.5568,208.5835,526.65,212.44" style="stroke:#E7E7E7;stroke-width:1;"/></g><!--link Charachter to CharachterUI--><g class="link" data-entity-1="Charachter" data-entity-2="CharachterUI" data-source-line="69" data-uid="lnk16" id="link_Charachter_CharachterUI"><path codeLine="69" d="M461.31,646.03 C476.89,667.6 485.0425,678.8831 497.3825,695.9631" fill="none" id="Charachter-to-CharachterUI" style="stroke:#E7E7E7;stroke-width:1;stroke-dasharray:7.0,7.0;"/><polygon fill="#E7E7E7" points="504.41,705.69,504.1385,698.484,497.3825,695.9631,497.6539,703.169,504.41,705.69" style="stroke:#E7E7E7;stroke-width:1;"/></g><!--SRC=[bLJBJiCm4BpdAonnQK7j3mHLgYf0bI27FhWW3bl7IImvTl43LI3-dNMQ9avee5oYh6TdTZEx3XLW35aKe84Mbkbd48v5dz4LUUJ6td9fPuHsKHD7DmI1brVom6nrD1h7qLSKqPxO6Ymt6L3BbQmqaKN2mvYWrBlYALc0e4w0PI4yEbR1m86e2eqhXfV1qftKyntugiPgBdCaPIfk8Wabm-XyhoGJIdLEXbErKkMQVx3BigNYvi9Kgy4KbwKQHJc8mTpAEKB16Vpon7SmY6vyKIHxXwsoy8lgTaaSZq_ps-vJ7Du6AQ8t5jBEPRxVWxObaxRPXihfk0wybuahTwnpujtrSLkQQ6PuYZBnQKzRR4OautcnKzeqpStJT5KpHcTKnc5YKhF3n9DYk6ChvMJw11BouvRzQ0E4Q4DJUyfboWxulc9lU97ilT8boV3HT92mWsrfdQqEEBvWq1zrMkDtj2VU5vmF4yoRtHg1Drdc3A6x6XcuDiYj9lGVZVv6JIQpeLz1qFfqUjt_-v1XlAFIRbClAmhTxKF1sFx4GiS7Uzeklm40]--></g></svg>